<svg xmlns="http://www.w3.org/2000/svg" version="1.1" xmlns:xlink="http://www.w3.org/1999/xlink" xmlns:svgjs="http://svgjs.dev/svgjs" width="1500" height="1687" viewBox="0 0 1500 1687"><g transform="matrix(1,0,0,1,0.00017343749982501322,0)"><svg viewBox="0 0 320 360" data-background-color="#ffffff" preserveAspectRatio="xMidYMid meet" height="1687" width="1500" xmlns="http://www.w3.org/2000/svg" xmlns:xlink="http://www.w3.org/1999/xlink"><g id="tight-bounds" transform="matrix(1,0,0,1,-0.0000369999999634274,0)"><svg viewBox="0 0 320 360" height="360" width="320"><g><svg></svg></g><g><svg viewBox="0 0 320 360" height="360" width="320"><g><path transform="translate(-29.57346,-9.38389) scale(3.79147,3.79147)" d="M50 13.6c19.1 0 34.8 14.8 36.3 33.5h5.9c-0.3-4.7-1.4-9.2-3.2-13.5-2.1-5-5.2-9.6-9.1-13.4-3.9-3.9-8.4-6.9-13.4-9.1-5.3-2.2-10.8-3.4-16.5-3.4-5.7 0-11.2 1.1-16.5 3.3-5 2.1-9.6 5.2-13.4 9.1-3.9 3.9-6.9 8.4-9.1 13.4-1.8 4.3-2.9 8.9-3.2 13.5h5.9c1.5-18.6 17.2-33.4 36.3-33.4zM50 86.4c-19.1 0-34.8-14.8-36.3-33.5h-5.9c0.3 4.7 1.4 9.2 3.2 13.5 2.1 5 5.2 9.6 9.1 13.4 3.9 3.9 8.4 6.9 13.4 9.1 5.2 2.2 10.7 3.3 16.5 3.3 5.8 0 11.2-1.1 16.5-3.3 5-2.1 9.6-5.2 13.4-9.1 3.9-3.9 6.9-8.4 9.1-13.4 1.8-4.3 2.9-8.9 3.2-13.5h-5.9c-1.5 18.7-17.2 33.5-36.3 33.5z" fill="#0023ff" fill-rule="nonzero" stroke="none" stroke-width="1" stroke-linecap="butt" stroke-linejoin="miter" stroke-miterlimit="10" stroke-dasharray="" stroke-dashoffset="0" font-family="none" font-weight="none" font-size="none" text-anchor="none" style="mix-blend-mode: normal" data-fill-palette-color="tertiary"></path></g><g transform="matrix(1,0,0,1,125.59744668312851,90)"><svg viewBox="0 0 68.80510663374298 180" height="180" width="68.80510663374298"><g><svg viewBox="0 0 119.88868274582558 313.63897172808817" height="180" width="68.80510663374298"><g transform="matrix(1,0,0,1,0,133.63897172808817)"><svg viewBox="0 0 119.88868274582558 180" height="180" width="119.88868274582558"><g id="textblocktransform"><svg viewBox="0 0 119.88868274582558 180" height="180" width="119.88868274582558" id="textblock"><g><svg viewBox="0 0 119.88868274582558 180" height="180" width="119.88868274582558"><g transform="matrix(1,0,0,1,0,0)"><svg width="119.88868274582558" viewBox="1.6 -26.35 17.95 26.950000000000003" height="180" data-palette-color="#0023ff"><path d="M10.95 0.6L10.95 0.6Q7.75 0.6 5.48-0.7 3.2-2 1.6-4.3L1.6-4.3 4.25-6.5Q5.6-4.6 7.18-3.6 8.75-2.6 10.95-2.6L10.95-2.6Q13.2-2.6 14.53-3.73 15.85-4.85 15.85-6.95L15.85-6.95Q15.85-8.65 15-9.7 14.15-10.75 11.85-11.15L11.85-11.15 9.9-11.5Q6.15-12.2 4.33-13.85 2.5-15.5 2.5-18.85L2.5-18.85Q2.5-20.8 3.1-22.23 3.7-23.65 4.8-24.58 5.9-25.5 7.43-25.93 8.95-26.35 10.75-26.35L10.75-26.35Q13.65-26.35 15.63-25.33 17.6-24.3 19.05-22.35L19.05-22.35 16.6-20.1Q15.75-21.3 14.35-22.23 12.95-23.15 10.75-23.15L10.75-23.15Q6.2-23.15 6.2-19L6.2-19Q6.2-17.1 7.18-16.23 8.15-15.35 10.35-14.95L10.35-14.95 12.3-14.6Q16.25-13.9 17.9-12.15 19.55-10.4 19.55-7.4L19.55-7.4Q19.55-3.65 17.38-1.53 15.2 0.6 10.95 0.6Z" opacity="1" transform="matrix(1,0,0,1,0,0)" fill="#0023ff" class="wordmark-text-0" data-fill-palette-color="primary" id="text-0"></path></svg></g></svg></g></svg></g></svg></g><g transform="matrix(1,0,0,1,22.898738404452686,0)"><svg viewBox="0 0 74.0912059369202 91.14529172808817" height="91.14529172808817" width="74.0912059369202"><g><svg xmlns="http://www.w3.org/2000/svg" xmlns:xlink="http://www.w3.org/1999/xlink" version="1.1" x="8.000000000000004" y="0" viewBox="26.026999841231916 12.385 47.947000317536165 75.229" enable-background="new 0 0 100 100" xml:space="preserve" height="91.14529172808817" width="58.0912059369202" class="icon-icon-0" data-fill-palette-color="accent" id="icon-0"><g fill="#0023ff" data-fill-palette-color="accent"><path fill="#0023ff" d="M36.555 66.559c-5.805 0-10.527 4.723-10.527 10.528 0 5.805 4.723 10.527 10.527 10.527s10.527-4.723 10.527-10.527C47.082 71.282 42.359 66.559 36.555 66.559z" data-fill-palette-color="accent"></path><path fill="#0023ff" d="M36.555 61.232c5.805 0 10.527-4.723 10.527-10.527 0-5.806-4.723-10.528-10.527-10.528-5.806 0-10.528 4.723-10.528 10.528C26.026 56.509 30.749 61.232 36.555 61.232z" data-fill-palette-color="accent"></path><path fill="#0023ff" d="M63.447 12.385c-5.806 0-10.528 4.723-10.528 10.528 0 5.805 4.723 10.527 10.528 10.527 5.805 0 10.527-4.723 10.527-10.527C73.975 17.108 69.252 12.385 63.447 12.385z" data-fill-palette-color="accent"></path><path fill="#0023ff" d="M63.446 44.926c-2.603 0-4.721 2.117-4.721 4.72 0 2.604 2.118 4.722 4.721 4.722s4.721-2.118 4.721-4.722C68.167 47.043 66.049 44.926 63.446 44.926z" data-fill-palette-color="accent"></path><path fill="#0023ff" d="M36.451 27.634c2.604 0 4.721-2.118 4.721-4.722 0-2.603-2.117-4.72-4.721-4.72-2.603 0-4.721 2.117-4.721 4.72C31.73 25.516 33.849 27.634 36.451 27.634z" data-fill-palette-color="accent"></path><path fill="#0023ff" d="M63.446 71.309c-2.603 0-4.721 2.117-4.721 4.72 0 2.604 2.118 4.722 4.721 4.722s4.721-2.118 4.721-4.722C68.167 73.426 66.049 71.309 63.446 71.309z" data-fill-palette-color="accent"></path></g></svg></g></svg></g><g></g></svg></g></svg></g></svg></g><defs></defs></svg><rect width="320" height="360" fill="none" stroke="none" visibility="hidden"></rect></g></svg></g></svg>